HIERARCHY
ROOT Hips
{
    OFFSET 0.000000 0.000000 0.000000
    CHANNELS 6 Xposition Yposition Zposition Zrotation Xrotation Yrotation
    JOINT Spine
    {
        OFFSET 0.000001 8.281923 0.000004
        CHANNELS 3 Zrotation Xrotation Yrotation
        JOINT Spine1
        {
            OFFSET -0.000004 23.973854 -0.000009
            CHANNELS 3 Zrotation Xrotation Yrotation
            JOINT Neck
            {
                OFFSET -0.000000 26.668362 0.000000
                CHANNELS 3 Zrotation Xrotation Yrotation
                JOINT Head
                {
                    OFFSET -0.000001 16.369625 2.035154
                    CHANNELS 3 Zrotation Xrotation Yrotation
                    End Site
                    {
                        OFFSET 0.000000 20.351660 0.000000
                    }
                }
            }
            JOINT LeftShoulder
            {
                OFFSET 4.036575 20.304850 -0.371899
                CHANNELS 3 Zrotation Xrotation Yrotation
                JOINT LeftArm
                {
                    OFFSET 12.502554 0.000004 0.000009
                    CHANNELS 3 Zrotation Xrotation Yrotation
                    JOINT LeftForeArm
                    {
                        OFFSET 31.806910 -0.000001 0.000006
                        CHANNELS 3 Zrotation Xrotation Yrotation
                        JOINT LeftHand
                        {
                            OFFSET 24.843231 -0.000000 0.000000
                            CHANNELS 3 Zrotation Xrotation Yrotation
                            JOINT LeftHandThumb1
                            {
                                OFFSET 2.126752 -2.416754 3.383463
                                CHANNELS 3 Zrotation Xrotation Yrotation
                                JOINT LeftHandThumb2
                                {
                                    OFFSET 3.212131 0.000003 0.000002
                                    CHANNELS 3 Zrotation Xrotation Yrotation
                                    JOINT LeftHandThumb3
                                    {
                                        OFFSET 2.745431 0.000005 0.000001
                                        CHANNELS 3 Zrotation Xrotation Yrotation
                                        End Site
                                        {
                                            OFFSET 2.793713 0.000000 0.000000
                                        }
                                    }
                                }
                            }
                            JOINT LeftHandIndex1
                            {
                                OFFSET 8.700339 -0.000006 3.383458
                                CHANNELS 3 Zrotation Xrotation Yrotation
                                JOINT LeftHandIndex2
                                {
                                    OFFSET 4.833529 0.000002 -0.000007
                                    CHANNELS 3 Zrotation Xrotation Yrotation
                                    JOINT LeftHandIndex3
                                    {
                                        OFFSET 2.416755 0.000004 0.000003
                                        CHANNELS 3 Zrotation Xrotation Yrotation
                                        End Site
                                        {
                                            OFFSET 2.459254 0.000000 0.000000
                                        }
                                    }
                                }
                            }
                            JOINT LeftHandMiddle1
                            {
                                OFFSET 8.700336 -0.000001 1.121373
                                CHANNELS 3 Zrotation Xrotation Yrotation
                                JOINT LeftHandMiddle2
                                {
                                    OFFSET 5.316878 -0.000005 -0.000006
                                    CHANNELS 3 Zrotation Xrotation Yrotation
                                    JOINT LeftHandMiddle3
                                    {
                                        OFFSET 2.900107 0.000006 0.000005
                                        CHANNELS 3 Zrotation Xrotation Yrotation
                                        End Site
                                        {
                                            OFFSET 2.951103 0.000000 0.000000
                                        }
                                    }
                                }
                            }
                            JOINT LeftHandRing1
                            {
                                OFFSET 8.216981 -0.000006 -1.121378
                                CHANNELS 3 Zrotation Xrotation Yrotation
                                JOINT LeftHandRing2
                                {
                                    OFFSET 4.833529 0.000003 -0.000006
                                    CHANNELS 3 Zrotation Xrotation Yrotation
                                    JOINT LeftHandRing3
                                    {
                                        OFFSET 2.416755 0.000003 0.000004
                                        CHANNELS 3 Zrotation Xrotation Yrotation
                                        End Site
                                        {
                                            OFFSET 2.459254 0.000000 0.000000
                                        }
                                    }
                                }
                            }
                            JOINT LeftHandPinky1
                            {
                                OFFSET 7.733627 -0.000004 -3.383463
                                CHANNELS 3 Zrotation Xrotation Yrotation
                                JOINT LeftHandPinky2
                                {
                                    OFFSET 3.866807 -0.000000 0.000006
                                    CHANNELS 3 Zrotation Xrotation Yrotation
                                    JOINT LeftHandPinky3
                                    {
                                        OFFSET 1.933403 -0.000000 0.000003
                                        CHANNELS 3 Zrotation Xrotation Yrotation
                                        End Site
                                        {
                                            OFFSET 1.967405 0.000000 0.000000
                                        }
                                    }
                                }
                            }
                        }
                    }
                }
            }
            JOINT RightShoulder
            {
                OFFSET -4.036573 20.304850 -0.371916
                CHANNELS 3 Zrotation Xrotation Yrotation
                JOINT RightArm
                {
                    OFFSET -12.502546 0.000003 0.000011
                    CHANNELS 3 Zrotation Xrotation Yrotation
                    JOINT RightForeArm
                    {
                        OFFSET -31.806908 0.000000 0.000003
                        CHANNELS 3 Zrotation Xrotation Yrotation
                        JOINT RightHand
                        {
                            OFFSET -24.843231 0.000000 -0.000001
                            CHANNELS 3 Zrotation Xrotation Yrotation
                            JOINT RightHandThumb1
                            {
                                OFFSET -2.126749 -2.416758 3.383464
                                CHANNELS 3 Zrotation Xrotation Yrotation
                                JOINT RightHandThumb2
                                {
                                    OFFSET -3.212134 0.000004 -0.000001
                                    CHANNELS 3 Zrotation Xrotation Yrotation
                                    JOINT RightHandThumb3
                                    {
                                        OFFSET -2.745440 -0.000003 0.000001
                                        CHANNELS 3 Zrotation Xrotation Yrotation
                                        End Site
                                        {
                                            OFFSET -2.793713 0.000000 0.000000
                                        }
                                    }
                                }
                            }
                            JOINT RightHandIndex1
                            {
                                OFFSET -8.700320 -0.000001 3.383456
                                CHANNELS 3 Zrotation Xrotation Yrotation
                                JOINT RightHandIndex2
                                {
                                    OFFSET -4.833521 0.000008 0.000009
                                    CHANNELS 3 Zrotation Xrotation Yrotation
                                    JOINT RightHandIndex3
                                    {
                                        OFFSET -2.416752 -0.000000 -0.000003
                                        CHANNELS 3 Zrotation Xrotation Yrotation
                                        End Site
                                        {
                                            OFFSET -2.459254 0.000000 0.000000
                                        }
                                    }
                                }
                            }
                            JOINT RightHandMiddle1
                            {
                                OFFSET -8.700326 -0.000004 1.121370
                                CHANNELS 3 Zrotation Xrotation Yrotation
                                JOINT RightHandMiddle2
                                {
                                    OFFSET -5.316868 -0.000003 -0.000004
                                    CHANNELS 3 Zrotation Xrotation Yrotation
                                    JOINT RightHandMiddle3
                                    {
                                        OFFSET -2.900111 0.000000 0.000001
                                        CHANNELS 3 Zrotation Xrotation Yrotation
                                        End Site
                                        {
                                            OFFSET -2.951103 0.000000 0.000000
                                        }
                                    }
                                }
                            }
                            JOINT RightHandRing1
                            {
                                OFFSET -8.216986 0.000000 -1.121368
                                CHANNELS 3 Zrotation Xrotation Yrotation
                                JOINT RightHandRing2
                                {
                                    OFFSET -4.833525 0.000002 0.000007
                                    CHANNELS 3 Zrotation Xrotation Yrotation
                                    JOINT RightHandRing3
                                    {
                                        OFFSET -2.416752 0.000000 -0.000003
                                        CHANNELS 3 Zrotation Xrotation Yrotation
                                        End Site
                                        {
                                            OFFSET -2.459254 0.000000 0.000000
                                        }
                                    }
                                }
                            }
                            JOINT RightHandPinky1
                            {
                                OFFSET -7.733630 0.000002 -3.383458
                                CHANNELS 3 Zrotation Xrotation Yrotation
                                JOINT RightHandPinky2
                                {
                                    OFFSET -3.866810 -0.000001 -0.000004
                                    CHANNELS 3 Zrotation Xrotation Yrotation
                                    JOINT RightHandPinky3
                                    {
                                        OFFSET -1.933413 0.000001 0.000007
                                        CHANNELS 3 Zrotation Xrotation Yrotation
                                        End Site
                                        {
                                            OFFSET -1.967405 0.000000 0.000000
                                        }
                                    }
                                }
                            }
                        }
                    }
                }
            }
        }
    }
    JOINT LeftUpLeg
    {
        OFFSET 10.175824 -0.000003 -0.000004
        CHANNELS 3 Zrotation Xrotation Yrotation
        JOINT LeftLeg
        {
            OFFSET 0.000003 -42.882950 0.000007
            CHANNELS 3 Zrotation Xrotation Yrotation
            JOINT LeftFoot
            {
                OFFSET 0.000001 -39.006771 0.000001
                CHANNELS 3 Zrotation Xrotation Yrotation
                JOINT LeftToeBase
                {
                    OFFSET -0.000003 -6.614287 15.263732
                    CHANNELS 3 Zrotation Xrotation Yrotation
                    End Site
                    {
                        OFFSET 0.000000 0.000000 4.070332
                    }
                }
            }
        }
    }
    JOINT RightUpLeg
    {
        OFFSET -10.175825 0.000003 0.000004
        CHANNELS 3 Zrotation Xrotation Yrotation
        JOINT RightLeg
        {
            OFFSET 0.000000 -42.882950 0.000001
            CHANNELS 3 Zrotation Xrotation Yrotation
            JOINT RightFoot
            {
                OFFSET 0.000001 -39.006771 0.000001
                CHANNELS 3 Zrotation Xrotation Yrotation
                JOINT RightToeBase
                {
                    OFFSET -0.000001 -6.614287 15.263741
                    CHANNELS 3 Zrotation Xrotation Yrotation
                    End Site
                    {
                        OFFSET 0.000000 0.000000 4.070332
                    }
                }
            }
        }
    }
}
MOTION
Frames:    4
Frame Time:    0.002778
-10.253665    84.525093    229.771072    7.598337    -6.542531    -20.164181    0.456860    6.942789    1.463943    2.284289    6.937543    1.243116    2.665031    8.060437    -4.008832    2.665030    8.060431    -4.008830    -5.693666    -0.870275    -1.474401    -56.341415    22.823076    -23.460308    -9.546807    -2.485845    -133.784546    20.901869    7.034317    17.918997    47.448223    38.866428    -34.355034    -35.000004    0.000001    -0.000007    -0.000000    0.000000    -0.000000    0.000004    10.000007    -0.000002    -0.000000    0.000000    -0.000000    -0.000000    0.000000    -0.000000    -0.000000    0.000000    -0.000000    -0.000000    0.000000    -0.000000    -0.000000    0.000000    -0.000000    -0.000000    0.000000    -0.000000    -0.000000    0.000000    -0.000000    -0.000000    0.000000    -0.000000    0.000007    -10.000001    0.000001    -0.000000    0.000000    -0.000000    -0.000000    0.000000    -0.000000    0.332058    -3.789251    7.637068    33.299164    3.593729    39.622536    -16.308584    -17.706137    59.818375    -9.891909    7.321996    -35.879093    -47.448208    38.866428    34.355030    35.000008    0.000000    -0.000000    -0.000000    0.000000    -0.000000    -0.000002    10.000001    -0.000002    -0.000000    0.000000    -0.000000    -0.000000    0.000000    -0.000000    -0.000000    0.000000    -0.000000    -0.000000    0.000000    -0.000000    -0.000000    0.000000    -0.000000    -0.000000    0.000000    -0.000000    -0.000000    0.000000    -0.000000    -0.000000    0.000000    -0.000000    -0.000005    -9.999997    -0.000003    -0.000000    0.000000    -0.000000    -0.000000    0.000000    -0.000000    5.223919    -7.829068    -3.244310    -0.000000    51.080555    -0.000001    -15.416394    -37.320934    11.441687    -0.000000    -2.424640    -0.000000    -16.129597    -27.689363    -1.202983    0.000002    69.077805    -0.000005    13.961233    -35.070690    3.698375    0.000001    -0.601264    -0.000004    
-10.274307    84.600639    229.704712    7.708383    -6.443151    -19.998297    0.452932    6.912237    1.627164    2.264651    6.907102    1.409185    2.681182    7.962078    -4.124650    2.681179    7.962076    -4.124649    -5.688488    -0.901508    -1.545148    -56.305050    22.700153    -23.500931    -9.502638    -2.470369    -133.692444    20.899471    7.037008    17.927217    47.448227    38.866455    -34.355042    -35.000004    -0.000003    -0.000009    -0.000000    0.000000    -0.000000    -0.000003    10.000001    0.000000    -0.000000    0.000000    -0.000000    -0.000000    0.000000    -0.000000    -0.000000    0.000000    -0.000000    -0.000000    0.000000    -0.000000    -0.000000    0.000000    -0.000000    -0.000000    0.000000    -0.000000    -0.000000    0.000000    -0.000000    -0.000000    0.000000    -0.000000    -0.000000    -9.999995    -0.000005    -0.000000    0.000000    -0.000000    -0.000000    0.000000    -0.000000    0.247408    -3.864259    7.663166    33.421074    2.902596    40.054279    -15.980401    -17.564230    60.010143    -10.019505    7.342494    -35.609058    -47.448208    38.866428    34.355030    35.000004    -0.000000    0.000008    -0.000000    0.000000    -0.000000    0.000005    10.000001    0.000007    -0.000000    0.000000    -0.000000    -0.000000    0.000000    -0.000000    -0.000000    0.000000    -0.000000    -0.000000    0.000000    -0.000000    -0.000000    0.000000    -0.000000    -0.000000    0.000000    -0.000000    -0.000000    0.000000    -0.000000    -0.000000    0.000000    -0.000000    0.000005    -9.999996    0.000005    -0.000000    0.000000    -0.000000    -0.000000    0.000000    -0.000000    5.209280    -7.923767    -3.252432    0.000001    50.813602    -0.000000    -15.442537    -37.115433    11.356491    0.000001    -2.413430    -0.000000    -16.138729    -27.729483    -1.195377    -0.000004    68.931862    0.000003    13.893280    -35.014629    3.473942    -0.000001    -0.593627    0.000001    
-10.297141    84.679161    229.639252    7.818793    -6.344907    -19.826115    0.449393    6.879951    1.787268    2.246951    6.874923    1.572003    2.692021    7.870589    -4.240037    2.692024    7.870592    -4.240036    -5.684369    -0.925999    -1.606297    -56.271660    22.609411    -23.546835    -9.438418    -2.448138    -133.612823    20.905140    7.040135    17.929037    47.448208    38.866432    -34.355026    -35.000000    -0.000002    0.000000    -0.000000    0.000000    -0.000000    -0.000011    10.000005    0.000003    -0.000000    0.000000    -0.000000    -0.000000    0.000000    -0.000000    -0.000000    0.000000    -0.000000    -0.000000    0.000000    -0.000000    -0.000000    0.000000    -0.000000    -0.000000    0.000000    -0.000000    -0.000000    0.000000    -0.000000    -0.000000    0.000000    -0.000000    -0.000003    -10.000001    0.000003    -0.000000    0.000000    -0.000000    -0.000000    0.000000    -0.000000    0.174336    -3.943172    7.685876    33.565407    2.207342    40.497414    -15.764978    -17.390533    60.161522    -10.146690    7.363075    -35.340328    -47.448215    38.866428    34.355030    35.000008    -0.000003    0.000008    -0.000000    0.000000    -0.000000    -0.000002    10.000003    0.000003    -0.000000    0.000000    -0.000000    -0.000000    0.000000    -0.000000    -0.000000    0.000000    -0.000000    -0.000000    0.000000    -0.000000    -0.000000    0.000000    -0.000000    -0.000000    0.000000    -0.000000    -0.000000    0.000000    -0.000000    -0.000000    0.000000    -0.000000    0.000000    -9.999996    0.000005    -0.000000    0.000000    -0.000000    -0.000000    0.000000    -0.000000    5.198579    -8.016368    -3.256637    0.000007    50.542023    -0.000003    -15.478631    -36.899723    11.257088    -0.000000    -2.398603    0.000000    -16.158327    -27.763676    -1.205173    0.000003    68.782196    -0.000004    13.828186    -34.952801    3.259434    0.000001    -0.580797    -0.000001    
-10.320644    84.754738    229.573135    7.927695    -6.246765    -19.650967    0.444766    6.848839    1.942468    2.223811    6.843933    1.730376    2.706026    7.779827    -4.357421    2.706029    7.779825    -4.357421    -5.674855    -0.953031    -1.659403    -56.237141    22.503803    -23.591167    -9.380157    -2.437474    -133.536530    20.908972    7.043480    17.932859    47.448204    38.866428    -34.355019    -35.000000    0.000000    -0.000002    -0.000000    0.000000    -0.000000    -0.000000    9.999999    -0.000000    -0.000000    0.000000    -0.000000    -0.000000    0.000000    -0.000000    -0.000000    0.000000    -0.000000    -0.000000    0.000000    -0.000000    -0.000000    0.000000    -0.000000    -0.000000    0.000000    -0.000000    -0.000000    0.000000    -0.000000    -0.000000    0.000000    -0.000000    0.000003    -10.000001    -0.000003    -0.000000    0.000000    -0.000000    -0.000000    0.000000    -0.000000    0.070165    -4.007609    7.682616    33.702168    1.533595    40.944530    -15.567389    -17.154974    60.307846    -10.255667    7.380671    -35.112167    -47.448223    38.866440    34.355045    35.000008    -0.000002    -0.000006    -0.000000    0.000000    -0.000000    -0.000002    10.000001    -0.000002    -0.000000    0.000000    -0.000000    -0.000000    0.000000    -0.000000    -0.000000    0.000000    -0.000000    -0.000000    0.000000    -0.000000    -0.000000    0.000000    -0.000000    -0.000000    0.000000    -0.000000    -0.000000    0.000000    -0.000000    -0.000000    0.000000    -0.000000    -0.000002    -9.999990    -0.000000    -0.000000    0.000000    -0.000000    -0.000000    0.000000    -0.000000    5.187081    -8.106940    -3.269221    0.000003    50.269093    -0.000001    -15.520275    -36.692951    11.158430    -0.000000    -2.386616    0.000000    -16.171667    -27.796524    -1.207551    0.000001    68.635406    -0.000002    13.763722    -34.896137    3.038409    -0.000001    -0.567739    0.000004    
